<svg xmlns="http://www.w3.org/2000/svg"
     viewBox="0 0 64 64"
     width="64"
     height="64">

  <!-- Gradient background -->
  <defs>
    <linearGradient id="bg" x1="0" y1="0" x2="1" y2="1">
      <stop offset="0%" stop-color="#10b981"/> <!-- emerald-500 -->
      <stop offset="100%" stop-color="#0d9488"/> <!-- teal-600 -->
    </linearGradient>
  </defs>

  <!-- Rounded background -->
  <rect x="0" y="0" width="64" height="64" rx="14" fill="url(#bg)"/>

  <!-- QR icon (scaled & centered) -->
  <g transform="translate(16 16) scale(1.33)"
     fill="none"
     stroke="#ffffff"
     stroke-width="2"
     stroke-linecap="round"
     stroke-linejoin="round">

    <rect x="3" y="3" width="5" height="5" rx="1"/>
    <rect x="16" y="3" width="5" height="5" rx="1"/>
    <rect x="3" y="16" width="5" height="5" rx="1"/>

    <path d="M21 16h-3a2 2 0 0 0-2 2v3"/>
    <path d="M21 21v.01"/>

    <path d="M12 7v3a2 2 0 0 1-2 2H7"/>
    <path d="M3 12h.01"/>
    <path d="M12 3h.01"/>
    <path d="M12 16v.01"/>
    <path d="M16 12h1"/>
    <path d="M21 12v.01"/>
    <path d="M12 21v-1"/>

  </g>
</svg>
